<?xml version="1.0" standalone="no"?>
<!DOCTYPE svg PUBLIC "-//W3C//DTD SVG 20010904//EN"
 "http://www.w3.org/TR/2001/REC-SVG-20010904/DTD/svg10.dtd">
<svg version="1.0" xmlns="http://www.w3.org/2000/svg"
 width="260.000000pt" height="260.000000pt" viewBox="0 0 260.000000 260.000000"
 preserveAspectRatio="xMidYMid meet">
<metadata>
Created by potrace 1.14, written by Peter Selinger 2001-2017
</metadata>
<g transform="translate(0.000000,260.000000) scale(0.100000,-0.100000)"
fill="#000000" stroke="none">
<path d="M0 1300 l0 -1300 1300 0 1300 0 0 1300 0 1300 -1300 0 -1300 0 0
-1300z m1670 195 c0 -266 3 -375 11 -375 6 0 88 64 182 143 l171 142 -67 3
c-51 2 -67 6 -67 17 0 13 26 15 156 15 120 0 155 -3 152 -12 -3 -8 -29 -15
-62 -18 -53 -5 -62 -10 -145 -78 l-88 -74 133 -261 c127 -251 134 -262 163
-265 19 -2 31 -9 31 -18 0 -12 -36 -14 -221 -14 -172 0 -220 3 -217 13 3 6 19
13 36 15 18 2 32 5 32 6 0 2 -38 83 -85 180 -53 111 -90 176 -98 173 -9 -3
-13 -51 -15 -180 l-2 -177 35 0 c24 0 35 -5 35 -15 0 -13 -32 -15 -226 -15
-176 0 -225 3 -222 13 3 6 23 13 46 15 l42 3 0 555 0 554 -45 0 c-33 0 -45 4
-45 15 0 13 28 15 190 15 l190 0 0 -375z m-678 285 c83 -21 89 -22 114 -5 14
9 27 15 28 13 2 -2 6 -72 10 -155 8 -179 1 -189 -59 -92 -49 80 -148 185 -199
212 -59 30 -158 28 -215 -4 -61 -34 -84 -77 -79 -145 8 -89 58 -125 259 -183
131 -37 206 -70 258 -111 81 -65 122 -196 101 -319 -30 -171 -134 -274 -306
-301 -75 -12 -126 -8 -293 22 l-115 21 -22 -29 c-13 -15 -26 -26 -29 -22 -3 3
-10 86 -15 184 -8 180 -2 223 24 180 89 -148 185 -255 269 -298 25 -12 69 -23
108 -26 57 -4 75 -1 123 21 47 22 60 33 76 69 25 54 25 92 1 145 -26 56 -88
90 -265 148 -76 25 -161 59 -188 76 -103 66 -148 151 -148 279 0 169 96 296
254 337 69 17 201 10 308 -17z m1238 -1245 l34 -35 -37 -37 c-40 -40 -65 -38
-27 2 l23 25 -941 0 c-621 0 -942 3 -942 10 0 7 321 10 942 10 l941 0 -21 23
c-12 13 -22 26 -22 30 0 15 18 5 50 -28z"/>
</g>
</svg>
