<?xml version="1.0" standalone="no"?>
<!DOCTYPE svg PUBLIC "-//W3C//DTD SVG 20010904//EN"
 "http://www.w3.org/TR/2001/REC-SVG-20010904/DTD/svg10.dtd">
<svg version="1.0" xmlns="http://www.w3.org/2000/svg"
 width="260.000000pt" height="260.000000pt" viewBox="0 0 260.000000 260.000000"
 preserveAspectRatio="xMidYMid meet">
<metadata>
Created by potrace 1.14, written by Peter Selinger 2001-2017
</metadata>
<g transform="translate(0.000000,260.000000) scale(0.100000,-0.100000)"
fill="#000000" stroke="none">
<path d="M1415 2282 c-123 -66 -199 -119 -281 -199 -163 -158 -249 -358 -237
-549 3 -38 5 -79 6 -91 0 -13 5 -23 10 -23 4 0 6 -4 3 -9 -3 -5 2 -33 11 -62
20 -66 20 -65 22 -85 0 -9 6 -12 13 -8 7 4 8 3 4 -4 -4 -7 7 -41 24 -77 17
-35 31 -67 30 -70 0 -3 11 -27 25 -55 14 -27 25 -58 25 -68 0 -10 3 -22 7 -26
4 -3 9 -17 11 -29 2 -12 5 -29 7 -37 2 -8 4 -19 4 -23 1 -5 7 -5 14 -1 7 5 6
0 -3 -11 -14 -17 -13 -18 3 -12 10 4 16 3 12 -2 -3 -5 0 -11 7 -13 7 -3 5 -7
-6 -11 -10 -4 -15 -3 -11 3 3 6 3 10 -2 10 -4 0 -9 -22 -9 -49 -1 -27 -7 -58
-13 -69 -8 -15 -7 -23 4 -32 11 -9 15 -9 15 -1 0 6 -6 11 -12 11 -7 1 -2 7 12
15 14 8 20 14 14 15 -6 0 -11 12 -11 27 0 25 0 25 13 8 7 -10 11 -22 8 -26 -3
-5 -1 -9 4 -9 18 0 22 14 7 36 -12 19 -12 23 0 28 9 3 12 12 9 23 -5 15 -4 15
4 3 7 -9 7 -18 1 -26 -11 -13 -1 -46 12 -39 4 3 6 12 2 20 -3 8 0 15 7 15 6 0
9 -4 6 -8 -10 -17 23 -50 44 -45 22 6 25 14 10 29 -6 6 -3 14 10 22 11 7 20 8
20 3 0 -5 -6 -11 -12 -14 -7 -2 -9 -8 -5 -13 5 -5 15 -1 23 10 8 11 14 16 14
11 0 -5 -10 -19 -22 -32 -20 -21 -20 -25 -7 -39 14 -13 17 -13 30 2 12 16 12
17 -3 11 -10 -3 -18 -2 -18 3 0 15 53 8 73 -8 9 -8 17 -11 17 -5 0 16 -36 44
-51 40 -8 -2 -11 -2 -6 0 4 3 5 8 3 12 -3 4 5 8 16 8 11 1 18 -1 15 -4 -3 -3
3 -15 14 -26 10 -11 18 -27 17 -35 -2 -8 2 -17 8 -19 12 -4 12 25 0 45 -4 6
-2 12 3 12 11 0 15 -13 12 -37 -2 -14 15 -18 22 -5 2 4 2 0 -1 -8 -2 -8 -4
-22 -3 -30 1 -8 1 -23 2 -33 0 -14 3 -16 13 -8 8 6 21 9 29 5 13 -4 15 -1 12
17 -3 12 0 28 6 36 8 9 8 13 0 13 -6 0 -11 5 -11 11 0 5 4 8 9 5 5 -4 12 0 15
6 3 7 3 1 1 -15 -2 -15 1 -27 6 -27 5 0 9 -5 9 -11 0 -8 -4 -8 -14 1 -12 9
-15 8 -13 -9 1 -13 6 -19 14 -17 7 3 10 -1 6 -10 -5 -14 -3 -14 15 -3 15 9 18
16 9 21 -6 4 -8 11 -3 15 5 4 11 2 13 -5 3 -6 10 -9 16 -5 8 4 7 1 -1 -9 -9
-12 -10 -17 -1 -20 7 -2 5 -9 -7 -18 -16 -14 -17 -13 -11 3 5 12 3 17 -5 15
-6 -2 -12 -12 -14 -21 -1 -10 2 -14 9 -10 7 4 8 0 4 -11 -4 -10 -7 -20 -7 -22
0 -10 -17 -3 -18 9 -3 37 -22 78 -22 47 0 -10 -3 -10 -15 0 -12 10 -18 10 -30
0 -8 -7 -15 -9 -15 -4 0 11 -20 -18 -20 -29 0 -4 11 0 25 9 23 15 27 15 50 0
23 -15 37 -35 15 -21 -9 6 -15 -8 -11 -29 1 -5 -5 -6 -14 -2 -11 4 -14 2 -9
-6 5 -7 3 -8 -6 -3 -8 5 -11 4 -7 -2 10 -17 -47 -10 -60 7 -10 12 -14 13 -25
2 -11 -11 -10 -12 6 -6 16 6 18 4 13 -10 -5 -12 -3 -15 6 -11 6 4 5 1 -3 -7
-8 -7 -16 -20 -18 -28 -1 -8 7 -4 18 10 19 22 20 22 11 3 -15 -30 -27 -35 -41
-18 -7 8 -16 12 -21 9 -5 -3 -9 0 -9 6 0 6 -5 8 -11 4 -6 -3 -7 -9 -2 -13 8
-5 9 -14 4 -38 -1 -5 -5 -2 -10 6 -5 8 -8 23 -6 33 2 10 -1 18 -7 18 -5 0 -7
-8 -4 -17 5 -15 4 -15 -9 1 -8 11 -15 14 -15 8 0 -7 -4 -12 -8 -12 -5 0 -9 7
-9 15 0 9 7 15 16 13 9 -1 22 1 28 5 8 5 13 3 13 -3 0 -6 4 -9 10 -5 5 3 7 12
4 20 -5 12 -10 12 -27 3 -16 -8 -22 -8 -25 1 -2 6 -8 11 -13 11 -6 0 -8 -4 -4
-9 3 -5 0 -13 -6 -17 -7 -4 -9 -3 -6 3 4 6 -5 9 -21 8 -15 -1 -33 6 -40 14
-10 14 -11 14 -5 -3 5 -15 2 -14 -18 5 -26 25 -30 40 -5 20 11 -9 16 -9 22 0
5 8 3 9 -6 4 -9 -6 -11 -4 -5 5 6 9 4 11 -5 5 -8 -5 -11 -4 -7 3 9 13 -2 42
-15 42 -5 0 -6 -5 -2 -12 5 -7 3 -8 -6 -3 -9 5 -11 4 -6 -4 4 -6 12 -9 17 -6
5 4 9 1 9 -5 0 -6 -12 -8 -28 -5 -25 4 -33 -1 -55 -33 -15 -20 -27 -33 -27
-28 0 5 7 18 17 28 18 20 11 36 -10 22 -7 -5 -4 -1 8 10 11 10 19 23 17 27 -1
5 2 9 8 9 5 0 10 -4 10 -10 0 -19 16 -10 17 10 1 11 -2 18 -7 15 -5 -3 -12 0
-16 6 -4 8 -3 9 5 5 6 -4 10 -4 9 1 -2 4 2 8 7 8 6 0 9 -4 7 -9 -2 -5 4 -6 13
-2 9 3 13 2 10 -4 -3 -6 -1 -10 4 -10 23 0 10 26 -21 44 -18 11 -30 16 -26 11
4 -4 -2 -16 -12 -28 -11 -11 -17 -24 -14 -29 3 -4 -2 -8 -10 -8 -9 0 -16 -5
-16 -11 0 -5 -4 -8 -9 -5 -5 3 -15 -1 -22 -10 -13 -16 -63 -45 -76 -44 -5 0
-8 -5 -8 -12 0 -6 -6 -13 -14 -16 -8 -3 -11 0 -7 7 4 6 2 11 -4 11 -6 0 -10
-7 -8 -16 2 -10 -3 -19 -10 -21 -7 -3 -11 1 -10 7 2 7 -4 15 -12 17 -13 4 -13
3 0 -6 10 -7 11 -11 3 -11 -7 0 -13 -8 -13 -17 0 -15 -2 -16 -9 -3 -6 8 -8 17
-5 21 5 10 -23 5 -33 -5 -4 -4 -3 -7 2 -6 21 5 30 -1 16 -9 -11 -7 -11 -13 3
-32 9 -13 16 -19 16 -13 0 5 -5 15 -11 21 -7 7 -3 10 14 10 l25 0 -19 -34
c-11 -19 -14 -31 -8 -27 8 4 9 -1 4 -17 -3 -13 -3 -19 2 -13 11 15 56 11 61
-6 3 -7 0 -10 -7 -6 -6 4 -11 2 -11 -3 0 -6 -5 -11 -11 -11 -5 0 -7 5 -4 10 3
6 1 10 -5 10 -7 0 -9 -7 -6 -16 3 -9 6 -18 6 -20 0 -2 10 2 23 9 28 17 83 13
100 -8 4 -6 7 -1 5 10 -2 14 4 21 21 23 15 2 21 0 16 -7 -3 -6 -11 -9 -16 -5
-5 3 -9 2 -8 -3 5 -28 -2 -45 -17 -39 -8 3 -12 2 -9 -3 3 -5 -4 -13 -15 -16
-16 -5 -18 -10 -11 -19 6 -7 9 -15 6 -17 -2 -3 4 -5 14 -5 13 0 18 7 16 23 -2
24 16 36 40 27 11 -5 12 -10 4 -26 -6 -11 -8 -23 -4 -26 3 -3 8 4 12 16 3 12
10 22 15 22 5 0 6 -5 2 -12 -4 -7 -3 -8 5 -4 6 4 8 12 5 18 -5 8 -1 9 10 5 10
-4 19 -7 22 -7 2 0 1 -6 -2 -14 -3 -8 -1 -17 4 -20 5 -3 8 6 6 20 -1 15 0 32
2 38 5 14 34 17 34 4 0 -4 -4 -8 -10 -8 -5 0 -10 -4 -10 -10 0 -18 18 -10 25
10 4 11 11 18 16 15 5 -3 1 -18 -9 -33 -9 -14 -12 -23 -5 -19 6 4 13 2 15 -5
3 -7 7 -5 11 6 4 10 3 15 -3 11 -6 -3 -10 -2 -10 3 0 16 13 22 27 11 9 -9 13
-8 13 0 0 6 6 11 14 11 8 0 17 8 20 17 6 15 8 15 17 3 8 -12 9 -12 7 4 -2 10
2 21 8 23 12 4 12 -25 -1 -47 -4 -8 3 -5 16 6 13 12 32 20 42 19 9 -2 17 1 17
6 0 5 -6 9 -12 9 -10 0 -10 2 0 9 19 12 -8 21 -44 15 -23 -4 -25 -3 -16 9 17
20 63 13 83 -12 14 -18 18 -18 23 -5 3 8 2 12 -3 9 -5 -3 -12 -1 -16 5 -3 5
-1 10 6 10 8 0 8 4 -1 15 -7 9 -10 18 -7 21 3 3 13 -6 22 -20 10 -14 25 -26
34 -25 12 0 12 2 -4 8 -19 8 -19 8 0 20 19 12 19 12 -1 6 -12 -3 -26 0 -33 9
-10 11 -4 13 39 10 55 -3 74 11 44 33 -16 12 -17 15 -4 23 20 13 33 13 25 0
-3 -5 -1 -18 4 -27 6 -11 11 -13 11 -5 0 7 5 10 12 6 7 -4 8 -3 4 5 -4 6 -12
9 -17 6 -5 -4 -9 -1 -9 4 0 6 8 11 18 12 14 0 14 2 2 7 -17 8 -25 32 -11 32 5
0 11 -3 14 -7 2 -5 2 -2 1 5 -4 15 27 12 38 -3 5 -6 8 -6 8 2 0 6 -4 15 -10
18 -5 3 -10 11 -10 17 0 6 6 6 15 -2 9 -7 18 -10 22 -6 3 3 0 6 -7 6 -9 0 -7
6 6 19 10 10 22 17 25 15 3 -2 6 3 6 11 0 14 -11 19 -31 16 -5 -1 -6 5 -3 12
3 8 1 19 -4 24 -7 7 -5 16 5 26 10 9 12 18 6 22 -5 3 -15 -3 -22 -15 -7 -11
-16 -20 -21 -20 -4 0 -5 5 -2 10 3 6 1 10 -4 10 -6 0 -11 5 -11 12 0 9 3 9 12
0 8 -8 15 -7 27 7 17 18 74 24 68 7 -2 -6 -12 -10 -22 -8 -9 2 -14 -1 -11 -7
3 -5 -1 -17 -10 -25 -14 -15 -13 -16 7 -14 12 2 24 -3 26 -10 3 -8 -1 -10 -13
-5 -12 4 -15 3 -10 -5 7 -12 41 -11 51 1 3 4 2 5 -1 2 -4 -2 -14 6 -24 18 -16
20 -16 22 -1 33 8 7 18 11 22 9 4 -3 5 19 0 45 -1 2 -6 -1 -12 -7 -13 -13 -39
-6 -39 9 0 5 4 6 10 3 5 -3 19 0 30 8 19 13 19 15 2 30 -12 11 -22 13 -32 7
-8 -5 -22 -10 -30 -9 -8 0 0 6 18 14 17 8 32 19 32 25 0 6 -5 8 -10 5 -6 -3
-10 -1 -10 5 0 7 8 9 21 5 19 -6 20 -5 8 8 -8 8 -18 13 -24 10 -5 -2 -1 3 9
11 16 13 17 19 8 28 -19 19 -14 32 6 17 15 -13 16 -12 3 4 -9 12 -17 14 -26 7
-8 -7 -12 -5 -12 5 0 8 4 15 8 15 4 0 1 12 -7 28 -12 24 -12 28 4 41 15 12 15
12 -8 7 -24 -7 -25 -7 -5 9 l20 17 -20 -4 c-12 -2 -21 3 -21 12 -1 8 -3 17 -4
20 -1 3 -3 17 -4 32 -1 15 -5 30 -8 34 -4 4 -2 16 4 28 10 18 9 19 -3 9 -12
-10 -17 -8 -28 9 -11 18 -11 20 3 15 15 -6 16 -5 2 15 -12 17 -13 25 -3 37 10
12 9 14 -5 9 -11 -5 -18 0 -21 13 -5 17 -3 18 10 7 14 -11 15 -11 5 8 -6 12
-8 24 -5 28 3 3 1 6 -6 6 -7 0 -11 13 -9 33 1 18 -2 38 -6 45 -7 12 9 17 48
13 17 -1 16 1 -4 17 -19 16 -20 21 -9 45 13 28 36 39 25 12 -3 -8 -9 -22 -12
-30 -7 -17 21 -21 31 -5 3 6 -1 7 -10 4 -11 -5 -14 -2 -9 10 3 9 11 13 16 10
6 -4 6 1 -1 13 -10 20 -6 33 11 33 5 0 7 -4 4 -8 -2 -4 3 -8 13 -8 10 0 18 5
18 11 0 13 -36 14 -54 2 -7 -5 -18 -5 -23 -2 -6 4 -10 3 -9 -2 1 -4 -3 -20 -9
-35 -6 -15 -9 -35 -6 -43 4 -8 1 -15 -4 -15 -6 0 -9 13 -7 29 5 42 32 101 46
101 6 0 8 7 5 16 -5 13 -1 15 21 10 22 -5 24 -4 11 4 -9 6 -15 17 -12 25 7 16
51 17 72 2 6 -5 12 -5 12 -1 0 16 -38 35 -42 22 -3 -7 -7 -5 -11 5 -3 9 -3 16
1 16 18 -3 33 2 28 9 -5 8 54 53 65 49 4 -1 15 8 25 21 11 12 29 24 41 27 13
2 32 11 44 19 12 8 28 12 37 9 10 -4 13 -2 8 6 -4 6 -4 10 1 9 4 -1 23 6 41
15 17 10 32 15 32 11 0 -4 6 -1 14 5 11 10 17 8 25 -6 8 -15 10 -13 8 14 -1
17 -5 29 -9 26 -5 -2 -8 0 -8 4 0 5 -18 27 -41 50 -24 25 -38 47 -33 54 4 7 3
9 -3 6 -11 -7 -100 92 -95 106 1 5 -2 6 -8 2 -6 -3 -14 4 -19 17 -6 13 -10 19
-10 14 -1 -5 -11 4 -23 20 -13 16 -22 32 -20 37 1 5 -2 6 -8 2 -5 -3 -10 -3
-10 2 -1 15 -126 143 -141 143 -8 0 -54 -22 -104 -48z m-410 -911 c3 -5 2 -12
-3 -15 -5 -3 -9 1 -9 9 0 17 3 19 12 6z m362 -16 c0 -8 -4 -12 -9 -9 -4 3 -8
9 -8 15 0 5 4 9 8 9 5 0 9 -7 9 -15z m-381 -60 c-1 -8 -5 -17 -8 -21 -5 -4 -4
16 1 34 3 9 9 -1 7 -13z m78 -37 c-3 -4 -11 -5 -19 -1 -21 7 -19 12 4 10 11 0
18 -5 15 -9z m261 -18 c3 -5 1 -10 -4 -10 -6 0 -11 5 -11 10 0 6 2 10 4 10 3
0 8 -4 11 -10z m-140 -19 c-9 -8 -36 -10 -30 -2 2 4 11 8 20 8 8 0 13 -3 10
-6z m165 -35 c0 -3 -4 -8 -10 -11 -5 -3 -10 -1 -10 4 0 6 5 11 10 11 6 0 10
-2 10 -4z m-175 -46 c3 -6 -1 -7 -9 -4 -18 7 -21 14 -7 14 6 0 13 -4 16 -10z
m215 0 c0 -5 -5 -10 -11 -10 -5 0 -7 5 -4 10 3 6 8 10 11 10 2 0 4 -4 4 -10z
m-326 -18 c3 -5 -1 -9 -9 -9 -8 0 -12 4 -9 9 3 4 7 8 9 8 2 0 6 -4 9 -8z m102
-4 c3 -4 -1 -5 -10 -4 -8 1 -18 5 -22 8 -3 4 1 5 10 4 8 -1 18 -5 22 -8z m15
-45 c13 -16 12 -17 -3 -4 -17 13 -22 21 -14 21 2 0 10 -8 17 -17z m213 9 c3
-5 -1 -9 -9 -9 -8 0 -12 4 -9 9 3 4 7 8 9 8 2 0 6 -4 9 -8z m-304 -6 c0 -2 -6
-9 -14 -15 -11 -9 -16 -9 -22 0 -4 7 -3 9 4 5 6 -3 13 -2 17 4 6 10 15 14 15
6z m71 -23 c13 -16 12 -17 -3 -4 -10 7 -18 15 -18 17 0 8 8 3 21 -13z m83 8
c3 -5 -2 -15 -12 -22 -15 -12 -16 -12 -5 2 7 9 10 19 6 22 -3 4 -4 7 0 7 3 0
8 -4 11 -9z m41 -9 c-3 -3 -11 0 -18 7 -9 10 -8 11 6 5 10 -3 15 -9 12 -12z
m80 9 c3 -5 2 -12 -3 -15 -5 -3 -9 1 -9 9 0 17 3 19 12 6z m-258 -20 c-1 -14
-5 -17 -13 -11 -6 6 -15 6 -19 2 -5 -4 -5 -1 -1 6 4 7 12 10 17 7 5 -4 9 -1 9
4 0 6 2 11 4 11 3 0 4 -9 3 -19z m63 -15 c0 -2 -7 -7 -16 -10 -8 -3 -12 -2 -9
4 6 10 25 14 25 6z m31 -22 c5 -15 8 -29 5 -31 -2 -2 -8 10 -14 26 -13 38 -5
41 9 5z m100 3 c-10 -9 -11 -8 -5 6 3 10 9 15 12 12 3 -3 0 -11 -7 -18z m-174
7 c-3 -4 -2 -16 4 -28 9 -19 9 -19 -4 -4 -8 10 -18 14 -23 10 -4 -4 -2 1 5 11
7 9 16 17 19 17 3 0 2 -3 -1 -6z m144 -36 c-10 -11 -11 -9 -5 6 5 12 4 17 -3
13 -5 -3 -10 1 -10 9 0 13 2 13 16 0 12 -13 13 -18 2 -28z m199 38 c0 -2 -6
-9 -14 -15 -11 -9 -16 -9 -22 0 -4 7 -3 9 4 5 6 -3 13 -2 17 4 6 10 15 14 15
6z m-105 -14 c-3 -3 1 -12 8 -21 10 -14 10 -14 -5 -3 -9 8 -22 11 -27 7 -6 -3
-8 0 -5 8 2 7 11 14 19 14 8 0 13 -3 10 -5z m-180 -31 c-6 -5 -21 -11 -35 -15
-21 -5 -20 -3 5 9 35 17 42 18 30 6z m60 -20 c3 -5 2 -12 -3 -15 -5 -3 -9 1
-9 9 0 17 3 19 12 6z m201 -15 c0 -14 -3 -23 -7 -20 -6 3 -6 22 0 42 3 10 7
-2 7 -22z m-246 -20 c-7 -7 -15 -5 -22 3 -11 10 -10 11 5 5 14 -5 16 -2 11 12
-5 16 -4 16 5 4 6 -9 7 -18 1 -24z m85 25 c3 -5 0 -13 -6 -17 -7 -4 -9 -3 -5
4 3 5 0 13 -6 15 -9 4 -10 6 -1 6 6 1 14 -3 18 -8z m88 -6 c-3 -9 -8 -14 -10
-11 -3 3 -2 9 2 15 9 16 15 13 8 -4z m161 6 c4 -5 -3 -7 -14 -4 -23 6 -26 13
-6 13 8 0 17 -4 20 -9z m-200 -26 c-10 -8 -23 -15 -28 -15 -6 0 -1 7 10 15 10
8 23 15 28 15 6 0 1 -7 -10 -15z m191 6 c3 -5 2 -12 -3 -15 -5 -3 -9 1 -9 9 0
17 3 19 12 6z m-395 -11 c-8 -5 -19 -10 -25 -10 -5 0 -3 5 5 10 8 5 20 10 25
10 6 0 3 -5 -5 -10z m118 -15 c-3 -3 -9 2 -12 12 -6 14 -5 15 5 6 7 -7 10 -15
7 -18z m177 15 c4 -6 -1 -7 -11 -3 -13 5 -15 3 -9 -7 5 -9 4 -11 -4 -6 -6 4
-9 12 -6 17 8 12 22 12 30 -1z m-258 -7 c-4 -3 -1 -13 6 -22 11 -14 10 -14 -5
-2 -21 15 -23 31 -6 31 6 0 8 -3 5 -7z m58 -23 c-3 -14 2 -20 16 -20 10 0 18
5 17 11 -2 6 4 14 12 16 12 4 12 3 2 -5 -8 -5 -13 -13 -13 -18 1 -5 -9 -9 -21
-9 -13 0 -22 5 -20 13 1 6 -2 12 -7 12 -5 0 -12 -6 -14 -12 -4 -10 -6 -10 -6
0 -1 7 6 15 14 18 8 4 12 11 8 17 -3 6 -1 7 5 3 6 -3 9 -15 7 -26z m373 14 c4
-4 -1 -4 -10 -1 -12 4 -18 1 -18 -8 0 -8 -5 -15 -12 -15 -6 0 -8 3 -5 7 4 3 2
12 -3 18 -8 9 -4 12 16 9 14 -1 29 -6 32 -10z m-94 -7 c3 4 6 1 6 -6 0 -13
-37 -6 -55 11 -6 5 1 5 16 -1 15 -5 30 -7 33 -4z m-361 -15 c-1 -5 10 -13 25
-18 32 -9 32 -9 52 -17 8 -3 22 -8 30 -10 10 -4 8 -6 -6 -6 -11 -1 -24 2 -28
6 -3 4 -16 8 -28 10 -17 3 -19 1 -8 -12 16 -19 3 -20 -16 0 -12 12 -12 15 -2
16 7 0 5 4 -5 8 -10 4 -18 11 -17 15 1 5 -4 13 -12 18 -10 8 -10 9 2 5 8 -2
14 -9 13 -15z m167 4 c0 -20 -17 -29 -26 -15 -5 8 -3 9 6 4 10 -6 12 -4 7 8
-3 10 -2 17 3 17 6 0 10 -6 10 -14z m80 9 c0 -7 -30 -13 -34 -7 -3 4 4 9 15 9
10 1 19 0 19 -2z m43 -10 c-3 -9 -8 -14 -10 -11 -3 3 -2 9 2 15 9 16 15 13 8
-4z m-77 -17 c4 -7 3 -8 -4 -4 -7 4 -12 2 -12 -5 0 -7 -3 -10 -6 -6 -6 5 3 27
11 27 2 0 7 -5 11 -12z m54 2 c0 -5 -7 -7 -15 -4 -8 4 -15 8 -15 10 0 2 7 4
15 4 8 0 15 -4 15 -10z m76 -9 c-4 -5 -1 -11 6 -13 7 -3 5 -7 -6 -11 -10 -4
-15 -3 -11 3 3 6 0 10 -7 10 -9 0 -9 3 2 10 19 12 23 12 16 1z m61 2 c-4 -3 1
-12 11 -20 15 -11 13 -12 -11 -1 -20 8 -24 14 -15 20 16 9 24 10 15 1z m-262
-34 c-5 -15 -3 -18 12 -13 14 5 15 4 3 -4 -19 -14 -27 -7 -27 23 0 13 4 22 9
19 5 -3 6 -14 3 -25z m45 6 c5 3 12 1 15 -5 9 -14 -13 -40 -34 -39 -11 0 -9 3
7 9 23 10 31 32 10 28 -6 -2 -13 4 -13 12 -1 8 0 9 2 2 3 -7 8 -10 13 -7z m54
12 c-3 -8 4 -13 16 -14 11 -1 18 2 15 7 -3 5 -1 11 4 14 5 4 8 -2 7 -11 -4
-24 -50 -24 -54 0 -2 9 1 17 7 17 6 0 8 -6 5 -13z m146 -17 c0 -5 -4 -10 -10
-10 -5 0 -10 5 -10 10 0 6 5 10 10 10 6 0 10 -4 10 -10z m-325 -19 c-3 -6 -11
-11 -16 -11 -5 0 -4 6 3 14 14 16 24 13 13 -3z m-65 -1 c0 -5 -5 -10 -11 -10
-5 0 -7 5 -4 10 3 6 8 10 11 10 2 0 4 -4 4 -10z m92 -17 c-23 -19 -25 -24 -12
-34 12 -9 12 -10 1 -7 -21 6 -24 23 -7 41 8 8 13 16 11 19 -2 2 5 4 15 4 17 0
16 -3 -8 -23z m228 17 c-18 -12 -30 -13 -30 -2 0 4 10 9 22 9 18 2 20 0 8 -7z
m-49 -11 c26 -14 9 -36 -27 -36 l-25 0 22 15 c17 11 18 16 8 23 -20 12 -1 11
22 -2z m117 -14 c-3 -3 -9 2 -12 12 -6 14 -5 15 5 6 7 -7 10 -15 7 -18z m-158
5 c0 -5 -4 -10 -10 -10 -5 0 -10 5 -10 10 0 6 5 10 10 10 6 0 10 -4 10 -10z
m137 -6 c2 -6 -4 -19 -12 -29 -16 -19 -16 -19 -6 2 14 29 14 28 -10 30 -18 2
-19 0 -7 -15 12 -15 11 -16 -4 -3 -10 7 -15 17 -12 22 6 11 47 5 51 -7z m103
7 c0 -6 -4 -13 -10 -16 -5 -3 -10 -1 -10 5 0 6 -5 8 -12 4 -7 -4 -8 -3 -4 4 9
14 36 16 36 3z m-56 -26 c-4 -8 -8 -15 -10 -15 -2 0 -4 7 -4 15 0 8 4 15 10
15 5 0 7 -7 4 -15z m-96 -7 c7 -7 12 -17 12 -22 0 -6 -7 -2 -15 8 -15 20 -15
20 -30 0 -8 -10 -15 -14 -15 -8 0 11 20 34 30 34 3 0 11 -5 18 -12z m75 -25
c-7 -2 -19 -2 -25 0 -7 3 -2 5 12 5 14 0 19 -2 13 -5z m-83 -13 c0 -5 -4 -10
-10 -10 -5 0 -10 5 -10 10 0 6 5 10 10 10 6 0 10 -4 10 -10z m0 -30 c0 -5 -4
-10 -10 -10 -5 0 -10 -5 -10 -11 0 -5 5 -7 10 -4 6 3 10 1 10 -4 0 -13 -17
-14 -24 -2 -8 12 3 41 15 41 5 0 9 -4 9 -10z m105 -90 c-10 -11 -20 -18 -23
-15 -3 3 3 14 13 25 10 11 20 18 23 15 3 -3 -3 -14 -13 -25z m-529 -11 c-14
-11 -23 -25 -20 -30 3 -6 12 -5 22 3 12 9 11 6 -2 -10 -13 -15 -16 -26 -9 -33
7 -7 17 1 34 25 13 19 31 34 40 33 10 -1 16 -4 13 -9 -2 -4 5 -12 16 -18 11
-6 18 -15 15 -21 -7 -10 -2 -11 44 -13 16 0 33 -5 38 -9 8 -8 9 -12 12 -38 1
-8 5 -8 15 0 10 9 17 7 27 -6 9 -11 10 -14 2 -9 -7 4 -13 3 -13 -2 0 -16 39
-21 51 -6 6 8 8 14 5 14 -4 0 -4 5 -1 10 5 8 11 7 21 -1 10 -8 11 -15 4 -24
-6 -7 -8 -21 -4 -31 3 -11 2 -15 -3 -8 -11 14 -59 12 -75 -3 -16 -17 -25 -16
-25 2 0 9 6 14 13 11 8 -3 16 0 20 6 4 6 3 8 -3 5 -6 -4 -22 3 -37 14 -14 11
-31 17 -37 13 -8 -5 -9 -3 -5 5 5 7 15 10 25 7 14 -5 14 -4 -1 7 -12 9 -14 17
-7 24 6 6 5 10 -5 10 -8 0 -13 -3 -11 -7 2 -4 -2 -7 -10 -7 -8 0 -12 5 -9 11
3 6 -2 2 -10 -8 -9 -11 -17 -17 -17 -13 -1 4 -2 11 -3 16 0 5 -5 13 -10 18 -5
5 -6 2 -1 -6 6 -10 4 -12 -6 -6 -12 8 -12 6 0 -8 9 -11 10 -17 2 -17 -6 0 -11
5 -11 11 0 5 -4 8 -9 4 -5 -3 -16 2 -25 10 -9 9 -17 11 -21 5 -3 -5 -1 -10 5
-10 6 0 8 -5 5 -11 -5 -6 -12 -4 -22 8 -8 10 -12 12 -8 6 3 -7 1 -21 -5 -30
-8 -13 -10 -14 -9 -3 3 23 -12 51 -23 44 -6 -4 -6 -9 2 -14 9 -5 9 -9 1 -14
-6 -4 -11 -2 -11 4 0 7 -9 9 -22 5 -18 -5 -20 -4 -8 4 13 10 13 11 0 11 -12 0
-12 2 -1 9 9 6 10 11 2 15 -6 4 -11 1 -11 -6 0 -9 -2 -10 -8 -2 -5 8 -11 7
-22 -4 -13 -14 -12 -15 3 -9 9 3 19 2 22 -3 6 -9 -8 -14 -28 -11 -4 0 -6 -4
-5 -10 2 -6 -3 -14 -11 -17 -8 -2 -11 0 -7 6 3 6 1 14 -5 18 -7 4 -9 3 -5 -4
11 -18 -10 -22 -30 -7 -15 12 -15 14 -3 9 10 -3 20 -1 23 5 4 6 14 7 23 4 10
-4 14 -2 9 5 -3 6 -2 13 4 17 6 4 8 10 5 15 -3 4 3 7 12 6 9 -2 30 9 46 23 16
14 33 26 37 26 5 0 12 3 16 8 4 4 12 7 17 7 5 0 -2 -9 -17 -21z m444 -63 c0
-2 -7 -7 -16 -10 -8 -3 -12 -2 -9 4 6 10 25 14 25 6z m-48 -19 c3 4 3 2 2 -4
-5 -19 7 -44 17 -37 5 3 9 1 9 -4 0 -5 -18 -9 -40 -9 -39 0 -51 9 -30 22 6 4
19 1 28 -7 16 -12 16 -11 2 6 -19 24 -23 51 -5 36 7 -6 15 -7 17 -3z m-435
-30 c3 -4 13 -1 21 6 12 9 14 9 8 0 -4 -7 -2 -22 5 -34 9 -17 8 -20 -3 -16 -7
2 -12 9 -11 15 1 5 -5 9 -15 7 -9 -1 -20 3 -24 9 -4 7 -14 4 -27 -8 -14 -13
-21 -15 -21 -6 0 10 -3 10 -15 0 -12 -10 -15 -10 -16 1 0 12 -1 12 -6 0 -5
-11 -7 -11 -15 0 -8 11 -9 10 -4 -3 3 -10 1 -18 -5 -18 -6 0 -7 -5 -3 -11 4
-8 9 -7 15 2 10 17 71 21 66 5 -2 -6 -12 -10 -22 -8 -13 3 -16 -1 -11 -13 4
-11 2 -15 -6 -12 -7 2 -12 10 -10 17 3 11 0 11 -13 0 -13 -11 -19 -11 -33 3
-9 10 -11 17 -5 17 6 0 10 8 9 18 -1 13 7 17 31 17 18 0 37 5 42 10 12 12 57
13 68 2z m138 -2 c11 -1 28 2 37 6 10 6 19 5 23 -1 3 -6 -1 -13 -9 -16 -22 -8
-20 -24 2 -19 24 4 45 -9 48 -29 3 -18 2 -18 -20 -10 -9 3 -12 13 -9 22 4 13
2 12 -10 -3 -8 -10 -13 -25 -10 -32 4 -9 0 -11 -11 -7 -15 6 -15 9 -2 30 15
21 14 23 -4 19 -17 -3 -18 -1 -11 14 7 13 6 18 -4 18 -7 0 -11 -5 -9 -11 7
-20 -13 -39 -32 -31 -11 5 -22 7 -26 7 -5 -1 -8 4 -8 11 0 7 9 13 20 14 11 1
18 -2 15 -7 -3 -5 0 -12 6 -16 8 -4 9 -3 5 4 -4 7 -1 12 6 12 8 0 6 5 -5 11
-9 5 -22 7 -29 3 -7 -4 -8 -3 -4 4 4 7 3 12 -3 12 -5 0 -13 -9 -16 -20 -4 -11
-10 -18 -14 -16 -4 3 -8 -1 -8 -8 0 -8 6 -12 14 -9 9 4 11 0 7 -11 -5 -12 -10
-14 -19 -6 -9 8 -15 8 -20 0 -4 -6 -1 -9 6 -8 6 2 14 -3 17 -11 3 -9 0 -11 -8
-6 -9 5 -11 4 -6 -4 4 -6 12 -9 17 -6 5 4 9 1 9 -4 0 -6 -6 -11 -14 -11 -7 0
-20 -8 -27 -17 -13 -16 -12 -17 4 -4 14 11 21 11 29 3 19 -19 -5 -37 -31 -23
-25 14 -27 27 -5 39 11 6 14 14 8 23 -13 20 -36 17 -56 -6 -10 -11 -17 -15
-18 -8 0 7 -10 10 -27 7 -22 -4 -24 -2 -15 9 7 8 11 16 9 18 -1 2 4 -3 12 -11
12 -13 13 -13 8 2 -3 10 -2 20 4 23 5 4 8 12 7 19 -2 6 2 11 7 11 6 0 9 -4 7
-10 -2 -5 2 -4 9 2 10 10 16 9 30 -3 20 -18 41 -11 32 11 -3 8 0 15 7 15 6 0
8 5 4 12 -4 6 -3 8 4 4 6 -3 14 -1 17 5 4 5 14 7 24 3 9 -3 25 -8 36 -9z m7
-77 c11 11 9 12 -7 6 -25 -9 -18 -1 13 15 22 12 23 11 13 -8 -14 -26 -14 -31
4 -31 8 0 15 -5 15 -11 0 -5 -5 -7 -10 -4 -6 3 -13 0 -16 -8 -2 -7 -11 -14
-19 -14 -19 0 -19 7 1 22 14 10 14 12 1 12 -8 0 -22 -16 -31 -35 -9 -19 -19
-32 -22 -29 -11 10 -12 82 -2 101 10 18 11 18 29 -5 15 -20 20 -22 31 -11z
m88 -50 c-35 -31 -41 -33 -58 -16 -15 15 -16 32 -2 23 6 -3 13 1 16 9 7 18 34
22 34 6 0 -5 -6 -10 -14 -10 -8 0 -17 -7 -20 -16 -4 -11 2 -9 25 7 l31 22 -26
14 c-39 20 -32 25 9 6 l35 -17 -30 -28z m87 16 c0 -8 -3 -12 -5 -9 -3 3 -11 0
-18 -6 -10 -8 -13 -6 -11 8 1 22 34 29 34 7z m-337 -74 c0 -5 -4 -10 -10 -10
-5 0 -10 5 -10 10 0 6 5 10 10 10 6 0 10 -4 10 -10z"/>
<path d="M1395 770 c-3 -5 -2 -10 4 -10 5 0 13 5 16 10 3 6 2 10 -4 10 -5 0
-13 -4 -16 -10z"/>
<path d="M980 555 c-21 -22 -20 -30 3 -26 12 2 8 -17 -5 -22 -10 -4 -10 -6 -1
-6 17 -1 36 36 23 44 -8 5 -7 11 1 21 20 24 4 16 -21 -11z m14 -13 c3 -5 -1
-9 -9 -9 -8 0 -12 4 -9 9 3 4 7 8 9 8 2 0 6 -4 9 -8z"/>
<path d="M1068 542 c-8 -9 -18 -24 -22 -32 -5 -10 -3 -10 5 1 12 15 14 15 29
-3 15 -19 16 -19 32 -1 15 17 15 19 -7 35 -21 16 -23 16 -37 0z m35 -33 c-8
-8 -14 -6 -22 9 -13 25 -2 37 18 17 11 -11 12 -18 4 -26z"/>
<path d="M1086 527 c3 -10 9 -15 12 -12 3 3 0 11 -7 18 -10 9 -11 8 -5 -6z"/>
<path d="M1245 450 c-4 -6 -11 -8 -16 -5 -5 4 -9 4 -9 1 0 -3 8 -10 18 -15 14
-7 18 -6 18 10 0 22 -2 23 -11 9z"/>
<path d="M1323 453 c4 -3 1 -13 -6 -22 -11 -14 -10 -14 5 -2 16 12 16 31 1 31
-4 0 -3 -3 0 -7z"/>
<path d="M968 412 c-22 -4 -24 -19 -3 -19 8 0 15 5 15 10 0 5 7 4 15 -3 9 -7
15 -8 15 -2 0 13 -20 19 -42 14z"/>
<path d="M1076 395 c-3 -8 -1 -15 4 -15 5 0 7 -8 4 -17 -5 -14 -4 -15 4 -4 5
7 7 22 5 32 -6 23 -9 24 -17 4z"/>
<path d="M1882 1821 c-8 -4 -13 -12 -12 -17 1 -5 -4 -10 -11 -13 -7 -2 -9 1
-4 9 5 8 4 11 -3 6 -6 -4 -9 -13 -5 -22 4 -11 9 -12 19 -3 17 14 18 -2 2 -21
-11 -12 -10 -12 5 -1 10 8 16 19 14 25 -3 6 0 19 5 29 10 19 9 20 -10 8z"/>
<path d="M1910 1815 c-10 -12 -10 -19 -2 -27 8 -8 7 -15 -6 -25 -16 -13 -15
-14 2 -5 11 5 21 17 22 26 1 9 -2 14 -7 10 -5 -3 -9 -1 -9 5 0 5 6 11 13 14 6
2 9 7 6 11 -3 4 -12 -1 -19 -9z"/>
<path d="M1784 1768 c-8 -13 15 -28 32 -21 7 2 14 10 17 16 5 15 -41 19 -49 5z
m26 -8 c0 -5 -2 -10 -4 -10 -3 0 -8 5 -11 10 -3 6 -1 10 4 10 6 0 11 -4 11
-10z"/>
<path d="M1714 1745 c-16 -13 -16 -14 -1 -9 13 5 16 2 11 -10 -3 -9 -1 -16 6
-16 6 0 8 5 5 10 -10 17 12 11 31 -7 16 -16 17 -16 12 -1 -4 9 -4 19 0 21 4 2
1 2 -5 1 -19 -5 -44 7 -37 17 8 13 0 11 -22 -6z"/>
<path d="M1836 1745 c-9 -26 -7 -32 5 -12 6 10 9 21 6 23 -2 3 -7 -2 -11 -11z"/>
<path d="M1673 1710 c-28 -11 -29 -16 -6 -24 10 -4 14 -4 10 0 -4 5 3 14 15
21 26 14 14 16 -19 3z"/>
<path d="M1753 1691 c0 -11 5 -18 9 -15 4 3 5 11 1 19 -7 21 -12 19 -10 -4z"/>
<path d="M1703 1693 c-15 -5 -17 -23 -4 -23 5 0 11 7 15 15 3 8 4 15 3 14 -1
0 -8 -3 -14 -6z"/>
<path d="M1625 1680 c-3 -5 -3 -10 2 -10 4 0 2 -4 -6 -9 -9 -6 -10 -11 -2 -15
6 -4 11 -2 11 4 0 6 4 9 8 6 4 -2 14 -1 21 3 9 6 10 11 2 15 -6 4 -11 2 -11
-4 0 -6 -5 -8 -10 -5 -6 4 -8 11 -5 16 4 5 4 9 1 9 -3 0 -8 -4 -11 -10z"/>
<path d="M1670 1650 c-9 -6 -10 -10 -3 -10 6 0 15 5 18 10 8 12 4 12 -15 0z"/>
<path d="M1641 1633 c-1 -17 16 -25 25 -12 4 7 3 9 -4 5 -5 -3 -13 0 -15 6 -4
9 -6 10 -6 1z"/>
<path d="M1560 1603 c8 -4 21 -13 28 -22 11 -14 11 -14 6 2 -6 18 11 24 19 7
3 -6 4 -5 3 2 -1 7 -18 13 -37 15 -19 1 -27 -1 -19 -4z"/>
<path d="M1526 1554 c-11 -8 -16 -14 -10 -14 13 0 39 18 34 24 -3 2 -14 -2
-24 -10z"/>
<path d="M1560 1560 c0 -5 5 -10 10 -10 6 0 10 5 10 10 0 6 -4 10 -10 10 -5 0
-10 -4 -10 -10z"/>
<path d="M1485 1400 c-3 -6 1 -7 9 -4 18 7 21 14 7 14 -6 0 -13 -4 -16 -10z"/>
<path d="M1500 1386 c0 -2 7 -7 16 -10 8 -3 12 -2 9 4 -6 10 -25 14 -25 6z"/>
<path d="M1481 1369 c0 -9 6 -22 14 -29 10 -9 15 -9 15 -1 0 6 -4 11 -9 11 -5
0 -12 8 -14 18 -4 14 -5 14 -6 1z"/>
<path d="M1510 1241 c0 -5 8 -15 18 -22 15 -12 16 -12 5 2 -7 9 -10 19 -6 22
3 4 1 7 -5 7 -7 0 -12 -4 -12 -9z"/>
<path d="M1586 982 c-3 -5 1 -9 9 -9 8 0 12 4 9 9 -3 4 -7 8 -9 8 -2 0 -6 -4
-9 -8z"/>
<path d="M1605 820 c-3 -5 -2 -10 4 -10 5 0 13 5 16 10 3 6 2 10 -4 10 -5 0
-13 -4 -16 -10z"/>
<path d="M1630 798 c0 -4 4 -8 9 -8 6 0 12 4 15 8 3 5 -1 9 -9 9 -8 0 -15 -4
-15 -9z"/>
<path d="M1160 725 c-8 -9 -8 -15 -2 -15 6 0 12 3 15 8 2 4 2 1 1 -5 -4 -15
-2 -15 20 -7 13 5 14 9 5 20 -15 18 -24 18 -39 -1z"/>
<path d="M1214 709 c-3 -6 -2 -15 4 -21 6 -6 8 -18 4 -26 -5 -14 -4 -15 10 -2
10 9 13 19 7 25 -5 5 -9 14 -9 20 0 5 7 2 15 -8 7 -11 11 -26 7 -35 -5 -14 -3
-15 9 -5 12 10 18 10 28 0 11 -10 12 -8 7 8 -4 14 1 24 17 34 22 14 22 14 3
-8 -19 -21 -19 -21 0 -21 13 0 20 7 21 20 2 30 -16 35 -41 11 l-23 -21 -18 20
c-20 23 -31 25 -41 9z"/>
<path d="M1120 700 c-17 -11 -16 -12 20 -14 14 0 30 -5 37 -9 6 -4 13 -1 16 5
3 7 4 3 4 -9 -1 -13 -5 -23 -9 -23 -4 0 -8 -4 -8 -8 0 -5 13 -8 30 -7 17 1 27
-2 23 -8 -4 -7 1 -8 12 -3 10 3 27 0 40 -8 13 -8 27 -11 35 -6 7 4 20 6 28 3
11 -5 11 0 -3 21 -19 28 -35 30 -44 5 -4 -12 -2 -12 12 0 10 7 17 9 17 3 0
-15 -22 -20 -45 -11 -11 4 -14 8 -7 8 7 1 10 6 7 11 -4 6 -12 7 -18 3 -21 -14
-52 -9 -52 9 0 21 -10 31 -33 34 -9 1 -24 4 -32 8 -8 3 -22 1 -30 -4z"/>
<path d="M1345 664 c1 -14 7 -30 13 -36 8 -8 6 -18 -6 -37 -14 -22 -14 -24 -1
-14 13 11 18 9 28 -15 11 -25 10 -26 -4 -7 -14 17 -17 18 -25 5 -7 -11 -10
-11 -10 -2 0 8 -5 10 -12 5 -20 -12 -39 -12 -32 -1 4 7 2 8 -5 4 -20 -12 -61
-17 -61 -7 0 6 9 8 19 6 11 -2 22 2 25 10 5 14 -4 14 -41 1 -14 -4 -20 -13
-18 -25 2 -10 -3 -18 -11 -18 -10 0 -11 4 -3 14 12 14 0 18 -17 6 -5 -5 -2 -1
8 8 16 15 16 18 1 23 -9 4 -18 4 -21 1 -3 -3 -2 -5 2 -5 4 0 2 -9 -4 -20 -8
-15 -7 -21 7 -28 21 -10 33 -10 51 2 8 5 18 4 24 -2 7 -7 17 -8 27 -2 12 6 23
1 40 -16 19 -20 20 -23 5 -18 -21 8 -19 6 11 -16 11 -8 17 -11 13 -6 -4 5 -3
18 3 29 6 10 7 17 2 14 -4 -3 -17 2 -28 10 -14 11 -15 14 -4 10 9 -3 21 -1 27
5 7 7 17 5 33 -5 16 -12 27 -13 41 -6 10 5 16 14 13 19 -4 6 1 7 11 3 12 -4
15 -3 10 5 -4 7 -2 12 6 12 9 0 9 3 -2 10 -20 13 -39 12 -20 -1 12 -8 12 -9
-5 -7 -11 1 -25 -1 -32 -5 -19 -12 -25 11 -9 41 9 17 11 34 6 42 -5 8 -6 19
-2 25 3 5 -7 1 -23 -9 -20 -13 -26 -14 -18 -4 7 8 10 18 6 21 -13 14 -21 6
-18 -19z m50 -23 c7 -12 -12 -24 -25 -16 -11 7 -4 25 10 25 5 0 11 -4 15 -9z
m21 -86 c-1 -8 -5 -17 -8 -21 -5 -4 -4 16 1 34 3 9 9 -1 7 -13z m-126 -10 c0
-7 -30 -13 -34 -7 -3 4 4 9 15 9 10 1 19 0 19 -2z"/>
<path d="M1610 680 c0 -5 9 -8 20 -7 21 1 18 10 -5 13 -8 1 -15 -2 -15 -6z"/>
<path d="M1123 673 c-8 -3 -7 -10 5 -22 9 -10 20 -16 24 -14 4 2 10 -2 14 -8
4 -8 3 -9 -4 -5 -7 4 -12 2 -12 -4 0 -6 -5 -8 -10 -5 -6 4 -5 -5 2 -19 6 -14
15 -26 20 -26 5 0 7 4 3 9 -9 16 12 22 39 11 19 -7 29 -6 41 6 8 9 15 11 15 5
0 -6 8 -7 17 -4 13 5 15 3 9 -12 -4 -11 -4 -16 0 -12 4 4 13 2 20 -4 9 -8 16
-5 24 11 6 12 9 24 6 28 -3 3 -6 0 -6 -5 0 -12 -18 -12 -37 0 -6 4 -24 9 -40
11 -15 2 -36 7 -45 11 -11 4 -18 3 -18 -4 0 -6 3 -10 8 -10 19 3 32 -2 32 -12
0 -8 -6 -7 -17 2 -9 8 -18 13 -20 12 -13 -10 -20 2 -19 28 1 25 -3 32 -19 34
-11 2 -25 1 -32 -2z m37 -13 c8 -5 11 -10 5 -10 -5 0 -17 5 -25 10 -8 5 -10
10 -5 10 6 0 17 -5 25 -10z"/>
<path d="M1593 565 c0 -8 4 -12 9 -9 5 3 6 10 3 15 -9 13 -12 11 -12 -6z"/>
<path d="M1513 473 c0 -9 4 -10 14 -2 7 6 13 12 13 14 0 1 -6 2 -13 2 -8 0
-14 -6 -14 -14z"/>
<path d="M1455 420 c-3 -5 -1 -10 4 -10 6 0 11 5 11 10 0 6 -2 10 -4 10 -3 0
-8 -4 -11 -10z"/>
<path d="M1420 411 c0 -10 19 -25 25 -20 1 2 -3 10 -11 17 -8 7 -14 8 -14 3z"/>
<path d="M1376 353 c-6 -14 -5 -15 5 -6 7 7 10 15 7 18 -3 3 -9 -2 -12 -12z"/>
<path d="M890 329 c0 -5 -4 -8 -9 -5 -5 3 -14 0 -20 -8 -9 -10 -8 -15 3 -19
11 -4 13 -1 9 10 -4 10 -2 14 4 10 6 -4 16 0 23 8 9 10 9 15 1 15 -6 0 -11 -5
-11 -11z"/>
<path d="M927 323 c4 -10 2 -14 -4 -10 -6 4 -16 1 -21 -6 -12 -14 -12 -58 -1
-51 4 2 5 13 2 24 -3 12 -2 20 3 19 13 -3 44 12 44 21 0 4 -7 10 -14 13 -11 4
-13 1 -9 -10z"/>
<path d="M990 275 c0 -8 2 -15 4 -15 2 0 6 7 10 15 3 8 1 15 -4 15 -6 0 -10
-7 -10 -15z"/>
<path d="M1054 255 c-4 -8 -11 -12 -17 -8 -6 3 -7 1 -3 -5 10 -16 14 -15 26 8
6 11 8 20 5 20 -3 0 -8 -7 -11 -15z"/>
</g>
</svg>
