<svg width="24" height="24" viewBox="0 0 24 24" fill="none" xmlns="http://www.w3.org/2000/svg">
<path d="M22.5 9.83953C20.4363 9.84447 18.4233 9.20088 16.7452 7.99969V16.3772C16.7446 17.9288 16.2703 19.4432 15.3858 20.718C14.5013 21.9928 13.2487 22.9672 11.7954 23.5109C10.3422 24.0545 8.75762 24.1416 7.25358 23.7604C5.74954 23.3791 4.39772 22.5478 3.37889 21.3776C2.36006 20.2074 1.72278 18.754 1.55226 17.2118C1.38174 15.6696 1.68612 14.112 2.42468 12.7475C3.16325 11.3829 4.3008 10.2764 5.68523 9.5758C7.06966 8.87521 8.63498 8.61398 10.1719 8.82703V13.0406C9.4686 12.8194 8.71339 12.8261 8.01411 13.0597C7.31483 13.2933 6.70725 13.7418 6.27812 14.3413C5.84899 14.9408 5.62027 15.6606 5.62461 16.3979C5.62895 17.1351 5.86614 17.8521 6.3023 18.4466C6.73846 19.041 7.35129 19.4824 8.05327 19.7077C8.75525 19.933 9.51049 19.9308 10.2111 19.7013C10.9118 19.4718 11.522 19.0268 11.9546 18.4298C12.3872 17.8329 12.6202 17.1145 12.6202 16.3772V0H16.7452C16.7423 0.348347 16.7715 0.696219 16.8324 1.03922C16.9757 1.80491 17.2737 2.53332 17.7082 3.17988C18.1427 3.82643 18.7046 4.37756 19.3594 4.79953C20.291 5.41551 21.3832 5.74383 22.5 5.74359V9.83953Z" fill="currentColor"/>
</svg>
