<svg width="24" height="24" viewBox="0 0 24 24" fill="none" xmlns="http://www.w3.org/2000/svg">
<path d="M20.4 1.5H3.6C2.44219 1.5 1.5 2.44219 1.5 3.6V20.4C1.5 21.5578 2.44219 22.5 3.6 22.5H20.4C21.5578 22.5 22.5 21.5578 22.5 20.4V3.6C22.5 2.44219 21.5578 1.5 20.4 1.5ZM19.1719 8.475C19.1063 9.95156 18.075 11.9766 16.0781 14.5406C14.0156 17.2219 12.2672 18.5625 10.8422 18.5625C9.95625 18.5625 9.21094 17.7469 8.59687 16.1109C7.40156 11.7375 6.89062 9.17344 5.90625 9.17344C5.79375 9.17344 5.39531 9.4125 4.71562 9.88594L4.00313 8.96719C5.75156 7.42969 7.42031 5.72344 8.46563 5.62969C9.64688 5.51719 10.3734 6.32344 10.6453 8.05313C11.6156 14.2031 12.0469 15.1312 13.8141 12.3469C14.4469 11.3437 14.7891 10.5797 14.8359 10.0547C15 8.49844 13.6219 8.60625 12.6891 9.00469C13.4344 6.5625 14.8594 5.37656 16.9641 5.44219C18.525 5.48437 19.2609 6.49688 19.1719 8.475Z" fill="currentColor"/>
</svg>
